<mxfile host="app.diagrams.net" agent="Mozilla/5.0 (Macintosh; Intel Mac OS X 10_15_7) AppleWebKit/605.1.15 (KHTML, like Gecko) Version/18.0.1 Safari/605.1.15" version="24.8.3">
  <diagram name="Страница — 1" id="zLys1Sj3gPk-hwhnI6pH">
    <mxGraphModel dx="2074" dy="1187" grid="1" gridSize="10" guides="1" tooltips="1" connect="1" arrows="1" fold="1" page="1" pageScale="1" pageWidth="827" pageHeight="1169" math="0" shadow="0">
      <root>
        <mxCell id="0" />
        <mxCell id="1" parent="0" />
        <mxCell id="3tGrHktT9dv63qw2gNwB-24" style="edgeStyle=orthogonalEdgeStyle;rounded=0;orthogonalLoop=1;jettySize=auto;html=1;exitX=0.5;exitY=0.5;exitDx=0;exitDy=0;exitPerimeter=0;entryX=0;entryY=0.5;entryDx=0;entryDy=0;" edge="1" parent="1" source="3tGrHktT9dv63qw2gNwB-1" target="3tGrHktT9dv63qw2gNwB-19">
          <mxGeometry relative="1" as="geometry" />
        </mxCell>
        <mxCell id="3tGrHktT9dv63qw2gNwB-28" style="edgeStyle=orthogonalEdgeStyle;rounded=0;orthogonalLoop=1;jettySize=auto;html=1;exitX=0.5;exitY=0.5;exitDx=0;exitDy=0;exitPerimeter=0;entryX=0;entryY=0.5;entryDx=0;entryDy=0;" edge="1" parent="1" source="3tGrHktT9dv63qw2gNwB-1" target="3tGrHktT9dv63qw2gNwB-17">
          <mxGeometry relative="1" as="geometry" />
        </mxCell>
        <mxCell id="3tGrHktT9dv63qw2gNwB-29" style="edgeStyle=orthogonalEdgeStyle;rounded=0;orthogonalLoop=1;jettySize=auto;html=1;exitX=0.5;exitY=0.5;exitDx=0;exitDy=0;exitPerimeter=0;entryX=0;entryY=0.5;entryDx=0;entryDy=0;" edge="1" parent="1" source="3tGrHktT9dv63qw2gNwB-1" target="3tGrHktT9dv63qw2gNwB-15">
          <mxGeometry relative="1" as="geometry" />
        </mxCell>
        <mxCell id="3tGrHktT9dv63qw2gNwB-30" style="edgeStyle=orthogonalEdgeStyle;rounded=0;orthogonalLoop=1;jettySize=auto;html=1;exitX=0.5;exitY=0.5;exitDx=0;exitDy=0;exitPerimeter=0;entryX=0;entryY=0.5;entryDx=0;entryDy=0;" edge="1" parent="1" source="3tGrHktT9dv63qw2gNwB-1" target="3tGrHktT9dv63qw2gNwB-18">
          <mxGeometry relative="1" as="geometry" />
        </mxCell>
        <mxCell id="3tGrHktT9dv63qw2gNwB-31" style="edgeStyle=orthogonalEdgeStyle;rounded=0;orthogonalLoop=1;jettySize=auto;html=1;exitX=0.5;exitY=0.5;exitDx=0;exitDy=0;exitPerimeter=0;entryX=0;entryY=0.5;entryDx=0;entryDy=0;" edge="1" parent="1" source="3tGrHktT9dv63qw2gNwB-1" target="3tGrHktT9dv63qw2gNwB-12">
          <mxGeometry relative="1" as="geometry" />
        </mxCell>
        <mxCell id="3tGrHktT9dv63qw2gNwB-34" style="edgeStyle=orthogonalEdgeStyle;rounded=0;orthogonalLoop=1;jettySize=auto;html=1;exitX=0.5;exitY=0.5;exitDx=0;exitDy=0;exitPerimeter=0;entryX=0;entryY=0.5;entryDx=0;entryDy=0;" edge="1" parent="1" source="3tGrHktT9dv63qw2gNwB-1" target="3tGrHktT9dv63qw2gNwB-7">
          <mxGeometry relative="1" as="geometry" />
        </mxCell>
        <mxCell id="3tGrHktT9dv63qw2gNwB-35" style="edgeStyle=orthogonalEdgeStyle;rounded=0;orthogonalLoop=1;jettySize=auto;html=1;exitX=0.5;exitY=0.5;exitDx=0;exitDy=0;exitPerimeter=0;entryX=0;entryY=0.5;entryDx=0;entryDy=0;" edge="1" parent="1" source="3tGrHktT9dv63qw2gNwB-1" target="3tGrHktT9dv63qw2gNwB-16">
          <mxGeometry relative="1" as="geometry" />
        </mxCell>
        <mxCell id="3tGrHktT9dv63qw2gNwB-1" value="Пользователь" style="shape=umlActor;verticalLabelPosition=bottom;verticalAlign=top;html=1;outlineConnect=0;" vertex="1" parent="1">
          <mxGeometry x="60" y="400" width="30" height="60" as="geometry" />
        </mxCell>
        <mxCell id="3tGrHktT9dv63qw2gNwB-45" style="edgeStyle=orthogonalEdgeStyle;rounded=0;orthogonalLoop=1;jettySize=auto;html=1;exitX=0.5;exitY=0.5;exitDx=0;exitDy=0;exitPerimeter=0;entryX=1;entryY=1;entryDx=0;entryDy=0;" edge="1" parent="1" source="3tGrHktT9dv63qw2gNwB-2" target="3tGrHktT9dv63qw2gNwB-16">
          <mxGeometry relative="1" as="geometry">
            <Array as="points">
              <mxPoint x="710" y="390" />
              <mxPoint x="710" y="511" />
            </Array>
          </mxGeometry>
        </mxCell>
        <mxCell id="3tGrHktT9dv63qw2gNwB-47" style="edgeStyle=orthogonalEdgeStyle;rounded=0;orthogonalLoop=1;jettySize=auto;html=1;exitX=0.5;exitY=0.5;exitDx=0;exitDy=0;exitPerimeter=0;entryX=1;entryY=0.5;entryDx=0;entryDy=0;" edge="1" parent="1" source="3tGrHktT9dv63qw2gNwB-2" target="3tGrHktT9dv63qw2gNwB-46">
          <mxGeometry relative="1" as="geometry" />
        </mxCell>
        <mxCell id="3tGrHktT9dv63qw2gNwB-49" style="edgeStyle=orthogonalEdgeStyle;rounded=0;orthogonalLoop=1;jettySize=auto;html=1;exitX=0.5;exitY=0.5;exitDx=0;exitDy=0;exitPerimeter=0;entryX=1;entryY=0.5;entryDx=0;entryDy=0;" edge="1" parent="1" source="3tGrHktT9dv63qw2gNwB-2" target="3tGrHktT9dv63qw2gNwB-48">
          <mxGeometry relative="1" as="geometry">
            <Array as="points">
              <mxPoint x="930" y="390" />
              <mxPoint x="930" y="690" />
            </Array>
          </mxGeometry>
        </mxCell>
        <mxCell id="3tGrHktT9dv63qw2gNwB-51" style="edgeStyle=orthogonalEdgeStyle;rounded=0;orthogonalLoop=1;jettySize=auto;html=1;exitX=0.5;exitY=0.5;exitDx=0;exitDy=0;exitPerimeter=0;entryX=1;entryY=0.5;entryDx=0;entryDy=0;" edge="1" parent="1" source="3tGrHktT9dv63qw2gNwB-2" target="3tGrHktT9dv63qw2gNwB-50">
          <mxGeometry relative="1" as="geometry">
            <Array as="points">
              <mxPoint x="930" y="390" />
              <mxPoint x="930" y="770" />
            </Array>
          </mxGeometry>
        </mxCell>
        <mxCell id="3tGrHktT9dv63qw2gNwB-53" style="edgeStyle=orthogonalEdgeStyle;rounded=0;orthogonalLoop=1;jettySize=auto;html=1;exitX=0.5;exitY=0.5;exitDx=0;exitDy=0;exitPerimeter=0;entryX=1;entryY=0.5;entryDx=0;entryDy=0;" edge="1" parent="1" source="3tGrHktT9dv63qw2gNwB-2" target="3tGrHktT9dv63qw2gNwB-52">
          <mxGeometry relative="1" as="geometry">
            <Array as="points">
              <mxPoint x="930" y="390" />
              <mxPoint x="930" y="830" />
            </Array>
          </mxGeometry>
        </mxCell>
        <mxCell id="3tGrHktT9dv63qw2gNwB-2" value="Администратор" style="shape=umlActor;verticalLabelPosition=bottom;verticalAlign=top;html=1;outlineConnect=0;" vertex="1" parent="1">
          <mxGeometry x="1040" y="360" width="30" height="60" as="geometry" />
        </mxCell>
        <mxCell id="3tGrHktT9dv63qw2gNwB-6" value="" style="swimlane;startSize=0;" vertex="1" parent="1">
          <mxGeometry x="140" y="220" width="850" height="710" as="geometry" />
        </mxCell>
        <mxCell id="3tGrHktT9dv63qw2gNwB-7" value="Просмотр главной страницы с последними новостями" style="ellipse;whiteSpace=wrap;html=1;" vertex="1" parent="3tGrHktT9dv63qw2gNwB-6">
          <mxGeometry x="240" y="130" width="140" height="90" as="geometry" />
        </mxCell>
        <mxCell id="3tGrHktT9dv63qw2gNwB-12" value="Поиск новостей по ключевым словам" style="ellipse;whiteSpace=wrap;html=1;" vertex="1" parent="3tGrHktT9dv63qw2gNwB-6">
          <mxGeometry x="230" y="310" width="105" height="70" as="geometry" />
        </mxCell>
        <mxCell id="3tGrHktT9dv63qw2gNwB-13" value="Просмотр статьи с текстом и изображениями" style="ellipse;whiteSpace=wrap;html=1;" vertex="1" parent="3tGrHktT9dv63qw2gNwB-6">
          <mxGeometry x="450" y="180" width="126" height="80" as="geometry" />
        </mxCell>
        <mxCell id="3tGrHktT9dv63qw2gNwB-14" value="Просмотр списка новостей по категориям" style="ellipse;whiteSpace=wrap;html=1;" vertex="1" parent="3tGrHktT9dv63qw2gNwB-6">
          <mxGeometry x="400" y="350" width="120" height="80" as="geometry" />
        </mxCell>
        <mxCell id="3tGrHktT9dv63qw2gNwB-15" value="Просмотр&lt;div&gt;архива&lt;/div&gt;&lt;div&gt;новостей&lt;/div&gt;" style="ellipse;whiteSpace=wrap;html=1;" vertex="1" parent="3tGrHktT9dv63qw2gNwB-6">
          <mxGeometry x="130" y="550" width="90" height="60" as="geometry" />
        </mxCell>
        <mxCell id="3tGrHktT9dv63qw2gNwB-16" value="Просмотр популярных&lt;div&gt;новостей&lt;/div&gt;" style="ellipse;whiteSpace=wrap;html=1;" vertex="1" parent="3tGrHktT9dv63qw2gNwB-6">
          <mxGeometry x="250" y="240" width="90" height="60" as="geometry" />
        </mxCell>
        <mxCell id="3tGrHktT9dv63qw2gNwB-17" value="Просмотр&lt;br&gt;&lt;div&gt;рекламных баннеров&lt;/div&gt;" style="ellipse;whiteSpace=wrap;html=1;" vertex="1" parent="3tGrHktT9dv63qw2gNwB-6">
          <mxGeometry x="130" y="460" width="100" height="70" as="geometry" />
        </mxCell>
        <mxCell id="3tGrHktT9dv63qw2gNwB-19" value="Поделиться статьей в соцсети" style="ellipse;whiteSpace=wrap;html=1;" vertex="1" parent="3tGrHktT9dv63qw2gNwB-6">
          <mxGeometry x="160" y="80" width="90" height="60" as="geometry" />
        </mxCell>
        <mxCell id="3tGrHktT9dv63qw2gNwB-18" value="Фильтрация новостей по тегам" style="ellipse;whiteSpace=wrap;html=1;" vertex="1" parent="3tGrHktT9dv63qw2gNwB-6">
          <mxGeometry x="230" y="390" width="100" height="70" as="geometry" />
        </mxCell>
        <mxCell id="3tGrHktT9dv63qw2gNwB-22" value="primechaniya.ru" style="text;html=1;align=center;verticalAlign=middle;whiteSpace=wrap;rounded=0;" vertex="1" parent="3tGrHktT9dv63qw2gNwB-6">
          <mxGeometry x="680" y="20" width="60" height="30" as="geometry" />
        </mxCell>
        <mxCell id="3tGrHktT9dv63qw2gNwB-37" value="&amp;lt;&amp;lt;include&amp;gt;&amp;gt;" style="html=1;verticalAlign=bottom;endArrow=open;dashed=1;endSize=8;rounded=0;entryX=1;entryY=0.5;entryDx=0;entryDy=0;exitX=0;exitY=0.5;exitDx=0;exitDy=0;edgeStyle=orthogonalEdgeStyle;" edge="1" parent="3tGrHktT9dv63qw2gNwB-6" source="3tGrHktT9dv63qw2gNwB-14" target="3tGrHktT9dv63qw2gNwB-18">
          <mxGeometry relative="1" as="geometry">
            <mxPoint x="430" y="459" as="sourcePoint" />
            <mxPoint x="350" y="459" as="targetPoint" />
          </mxGeometry>
        </mxCell>
        <mxCell id="3tGrHktT9dv63qw2gNwB-38" value="&amp;lt;&amp;lt;include&amp;gt;&amp;gt;" style="html=1;verticalAlign=bottom;endArrow=open;dashed=1;endSize=8;rounded=0;entryX=1;entryY=0.5;entryDx=0;entryDy=0;exitX=0;exitY=0.5;exitDx=0;exitDy=0;edgeStyle=orthogonalEdgeStyle;" edge="1" parent="3tGrHktT9dv63qw2gNwB-6" source="3tGrHktT9dv63qw2gNwB-14" target="3tGrHktT9dv63qw2gNwB-12">
          <mxGeometry relative="1" as="geometry">
            <mxPoint x="410" y="400" as="sourcePoint" />
            <mxPoint x="340" y="435" as="targetPoint" />
          </mxGeometry>
        </mxCell>
        <mxCell id="3tGrHktT9dv63qw2gNwB-39" value="&amp;lt;&amp;lt;include&amp;gt;&amp;gt;" style="html=1;verticalAlign=bottom;endArrow=open;dashed=1;endSize=8;rounded=0;entryX=1;entryY=0.5;entryDx=0;entryDy=0;edgeStyle=orthogonalEdgeStyle;exitX=0;exitY=0.5;exitDx=0;exitDy=0;" edge="1" parent="3tGrHktT9dv63qw2gNwB-6" source="3tGrHktT9dv63qw2gNwB-13" target="3tGrHktT9dv63qw2gNwB-7">
          <mxGeometry relative="1" as="geometry">
            <mxPoint x="410" y="400" as="sourcePoint" />
            <mxPoint x="345" y="355" as="targetPoint" />
          </mxGeometry>
        </mxCell>
        <mxCell id="3tGrHktT9dv63qw2gNwB-48" value="Управление рекламными баннерами" style="ellipse;whiteSpace=wrap;html=1;" vertex="1" parent="3tGrHktT9dv63qw2gNwB-6">
          <mxGeometry x="576" y="430" width="120" height="80" as="geometry" />
        </mxCell>
        <mxCell id="3tGrHktT9dv63qw2gNwB-50" value="Создание и редактирование статей" style="ellipse;whiteSpace=wrap;html=1;" vertex="1" parent="3tGrHktT9dv63qw2gNwB-6">
          <mxGeometry x="480" y="510" width="120" height="80" as="geometry" />
        </mxCell>
        <mxCell id="3tGrHktT9dv63qw2gNwB-52" value="Архивирование статей" style="ellipse;whiteSpace=wrap;html=1;" vertex="1" parent="3tGrHktT9dv63qw2gNwB-6">
          <mxGeometry x="290" y="570" width="120" height="80" as="geometry" />
        </mxCell>
        <mxCell id="3tGrHktT9dv63qw2gNwB-23" value="VK" style="rounded=0;whiteSpace=wrap;html=1;" vertex="1" parent="1">
          <mxGeometry x="510" y="140" width="120" height="60" as="geometry" />
        </mxCell>
        <mxCell id="3tGrHktT9dv63qw2gNwB-25" style="edgeStyle=orthogonalEdgeStyle;rounded=0;orthogonalLoop=1;jettySize=auto;html=1;exitX=1;exitY=0.5;exitDx=0;exitDy=0;entryX=0;entryY=0.5;entryDx=0;entryDy=0;" edge="1" parent="1" source="3tGrHktT9dv63qw2gNwB-19" target="3tGrHktT9dv63qw2gNwB-23">
          <mxGeometry relative="1" as="geometry" />
        </mxCell>
        <mxCell id="3tGrHktT9dv63qw2gNwB-26" value="&amp;lt;&amp;lt;depends&amp;gt;&amp;gt;" style="edgeLabel;html=1;align=center;verticalAlign=middle;resizable=0;points=[];" vertex="1" connectable="0" parent="3tGrHktT9dv63qw2gNwB-25">
          <mxGeometry x="0.0313" y="4" relative="1" as="geometry">
            <mxPoint as="offset" />
          </mxGeometry>
        </mxCell>
        <mxCell id="3tGrHktT9dv63qw2gNwB-43" value="&amp;lt;&amp;lt;include&amp;gt;&amp;gt;" style="html=1;verticalAlign=bottom;endArrow=open;dashed=1;endSize=8;rounded=0;entryX=1;entryY=0.5;entryDx=0;entryDy=0;edgeStyle=orthogonalEdgeStyle;" edge="1" parent="1" target="3tGrHktT9dv63qw2gNwB-16">
          <mxGeometry relative="1" as="geometry">
            <mxPoint x="570" y="441" as="sourcePoint" />
            <mxPoint x="510" y="405" as="targetPoint" />
          </mxGeometry>
        </mxCell>
        <mxCell id="3tGrHktT9dv63qw2gNwB-44" style="edgeStyle=orthogonalEdgeStyle;rounded=0;orthogonalLoop=1;jettySize=auto;html=1;exitX=0.5;exitY=0.5;exitDx=0;exitDy=0;entryX=1;entryY=0;entryDx=0;entryDy=0;exitPerimeter=0;" edge="1" parent="1" source="3tGrHktT9dv63qw2gNwB-2" target="3tGrHktT9dv63qw2gNwB-7">
          <mxGeometry relative="1" as="geometry">
            <Array as="points">
              <mxPoint x="710" y="390" />
              <mxPoint x="710" y="363" />
            </Array>
          </mxGeometry>
        </mxCell>
        <mxCell id="3tGrHktT9dv63qw2gNwB-46" value="Создание и редактирование тегов" style="ellipse;whiteSpace=wrap;html=1;" vertex="1" parent="1">
          <mxGeometry x="700" y="560" width="120" height="80" as="geometry" />
        </mxCell>
      </root>
    </mxGraphModel>
  </diagram>
</mxfile>
